<mxfile host="Electron" agent="Mozilla/5.0 (Windows NT 10.0; WOW64) AppleWebKit/537.36 (KHTML, like Gecko) draw.io/26.2.2 Chrome/134.0.6998.178 Electron/35.1.2 Safari/537.36" version="26.2.2">
  <diagram name="Página-1" id="LiZZOVxeX75N78pAddrL">
    <mxGraphModel dx="712" dy="433" grid="1" gridSize="10" guides="1" tooltips="1" connect="1" arrows="1" fold="1" page="1" pageScale="1" pageWidth="827" pageHeight="1169" math="0" shadow="0">
      <root>
        <mxCell id="0" />
        <mxCell id="1" parent="0" />
        <mxCell id="RARzLuFDLYq2KIcgCE57-2" value="" style="endArrow=none;html=1;rounded=0;strokeColor=none;edgeStyle=orthogonalEdgeStyle;curved=1;entryX=0;entryY=0.5;entryDx=0;entryDy=0;" parent="1" source="wc-kAtDPbHfUWhHq3vSZ-26" target="RARzLuFDLYq2KIcgCE57-1" edge="1">
          <mxGeometry width="50" height="50" relative="1" as="geometry">
            <mxPoint x="315" y="312" as="sourcePoint" />
            <mxPoint x="460" y="440" as="targetPoint" />
          </mxGeometry>
        </mxCell>
        <mxCell id="wc-kAtDPbHfUWhHq3vSZ-26" value="SISTEMA" style="whiteSpace=wrap;html=1;aspect=fixed;strokeWidth=2;" parent="1" vertex="1">
          <mxGeometry x="240" y="440" width="79" height="79" as="geometry" />
        </mxCell>
        <mxCell id="wc-kAtDPbHfUWhHq3vSZ-28" value="&lt;div&gt;finalidad&lt;/div&gt;" style="ellipse;whiteSpace=wrap;html=1;" parent="1" vertex="1">
          <mxGeometry x="205" y="250" width="70" height="40" as="geometry" />
        </mxCell>
        <mxCell id="wc-kAtDPbHfUWhHq3vSZ-29" value="observaciones" style="ellipse;whiteSpace=wrap;html=1;" parent="1" vertex="1">
          <mxGeometry x="281" y="210" width="99" height="40" as="geometry" />
        </mxCell>
        <mxCell id="wc-kAtDPbHfUWhHq3vSZ-34" style="edgeStyle=orthogonalEdgeStyle;rounded=0;orthogonalLoop=1;jettySize=auto;html=1;exitX=1;exitY=0.75;exitDx=0;exitDy=0;entryX=0;entryY=0.5;entryDx=0;entryDy=0;endArrow=none;startFill=1;endFill=0;startArrow=oval;" parent="1" source="wc-kAtDPbHfUWhHq3vSZ-30" target="wc-kAtDPbHfUWhHq3vSZ-32" edge="1">
          <mxGeometry relative="1" as="geometry" />
        </mxCell>
        <mxCell id="wc-kAtDPbHfUWhHq3vSZ-30" value="ORGANO" style="whiteSpace=wrap;html=1;aspect=fixed;strokeWidth=2;" parent="1" vertex="1">
          <mxGeometry x="65" y="142" width="80" height="80" as="geometry" />
        </mxCell>
        <mxCell id="wc-kAtDPbHfUWhHq3vSZ-31" value="&lt;div&gt;pertenece&lt;/div&gt;" style="rhombus;whiteSpace=wrap;html=1;" parent="1" vertex="1">
          <mxGeometry x="55" y="330" width="80" height="80" as="geometry" />
        </mxCell>
        <mxCell id="wc-kAtDPbHfUWhHq3vSZ-32" value="&lt;div&gt;nombre órgano&lt;/div&gt;" style="ellipse;whiteSpace=wrap;html=1;" parent="1" vertex="1">
          <mxGeometry x="182" y="150" width="116" height="40" as="geometry" />
        </mxCell>
        <mxCell id="wc-kAtDPbHfUWhHq3vSZ-39" value="" style="endArrow=ERmany;html=1;rounded=0;entryX=0;entryY=0.5;entryDx=0;entryDy=0;exitX=1;exitY=0.5;exitDx=0;exitDy=0;edgeStyle=orthogonalEdgeStyle;curved=1;startArrow=none;startFill=0;endFill=0;" parent="1" source="wc-kAtDPbHfUWhHq3vSZ-31" target="wc-kAtDPbHfUWhHq3vSZ-26" edge="1">
          <mxGeometry width="50" height="50" relative="1" as="geometry">
            <mxPoint x="625" y="352" as="sourcePoint" />
            <mxPoint x="675" y="302" as="targetPoint" />
          </mxGeometry>
        </mxCell>
        <mxCell id="wc-kAtDPbHfUWhHq3vSZ-40" value="" style="endArrow=none;html=1;rounded=0;entryX=0.5;entryY=0;entryDx=0;entryDy=0;exitX=0.388;exitY=1;exitDx=0;exitDy=0;startArrow=classic;startFill=1;endFill=0;edgeStyle=orthogonalEdgeStyle;curved=1;exitPerimeter=0;" parent="1" source="wc-kAtDPbHfUWhHq3vSZ-30" target="wc-kAtDPbHfUWhHq3vSZ-31" edge="1">
          <mxGeometry width="50" height="50" relative="1" as="geometry">
            <mxPoint x="175" y="352" as="sourcePoint" />
            <mxPoint x="235" y="312" as="targetPoint" />
          </mxGeometry>
        </mxCell>
        <mxCell id="igyQZ0JJpqwrwuxizYwg-3" value="&lt;div&gt;&lt;br&gt;&lt;/div&gt;&lt;div&gt;&lt;br&gt;&lt;/div&gt;" style="edgeLabel;html=1;align=center;verticalAlign=middle;resizable=0;points=[];" parent="wc-kAtDPbHfUWhHq3vSZ-40" connectable="0" vertex="1">
          <mxGeometry x="0.5217" y="-3" relative="1" as="geometry">
            <mxPoint as="offset" />
          </mxGeometry>
        </mxCell>
        <mxCell id="_f6-mfZsfHNNYEqXoSw5-7" style="edgeStyle=none;curved=1;rounded=0;orthogonalLoop=1;jettySize=auto;html=1;fontSize=12;startSize=8;endSize=8;exitX=0;exitY=0.5;exitDx=0;exitDy=0;exitPerimeter=0;endArrow=ERmany;endFill=0;" parent="1" source="wc-kAtDPbHfUWhHq3vSZ-41" target="wc-kAtDPbHfUWhHq3vSZ-26" edge="1">
          <mxGeometry relative="1" as="geometry">
            <mxPoint x="340" y="440" as="targetPoint" />
            <mxPoint x="530" y="300" as="sourcePoint" />
            <Array as="points">
              <mxPoint x="420" y="330" />
            </Array>
          </mxGeometry>
        </mxCell>
        <mxCell id="wc-kAtDPbHfUWhHq3vSZ-41" value="clasifica" style="rhombus;whiteSpace=wrap;html=1;" parent="1" vertex="1">
          <mxGeometry x="540" y="260" width="80" height="80" as="geometry" />
        </mxCell>
        <mxCell id="wc-kAtDPbHfUWhHq3vSZ-42" value="AREA" style="whiteSpace=wrap;html=1;aspect=fixed;strokeWidth=2;" parent="1" vertex="1">
          <mxGeometry x="660" y="180" width="80" height="80" as="geometry" />
        </mxCell>
        <mxCell id="wc-kAtDPbHfUWhHq3vSZ-43" value="nombre_area" style="ellipse;whiteSpace=wrap;html=1;" parent="1" vertex="1">
          <mxGeometry x="652" y="102" width="110" height="40" as="geometry" />
        </mxCell>
        <mxCell id="wc-kAtDPbHfUWhHq3vSZ-44" value="" style="endArrow=none;html=1;rounded=0;exitX=0.588;exitY=0.025;exitDx=0;exitDy=0;exitPerimeter=0;entryX=0.5;entryY=1;entryDx=0;entryDy=0;endFill=0;startArrow=oval;startFill=1;" parent="1" source="wc-kAtDPbHfUWhHq3vSZ-42" target="wc-kAtDPbHfUWhHq3vSZ-43" edge="1">
          <mxGeometry width="50" height="50" relative="1" as="geometry">
            <mxPoint x="625" y="352" as="sourcePoint" />
            <mxPoint x="675" y="302" as="targetPoint" />
          </mxGeometry>
        </mxCell>
        <mxCell id="wc-kAtDPbHfUWhHq3vSZ-46" value="" style="endArrow=none;html=1;rounded=0;exitX=0.5;exitY=0;exitDx=0;exitDy=0;entryX=0.5;entryY=1;entryDx=0;entryDy=0;endFill=0;startArrow=oval;startFill=1;" parent="1" source="wc-kAtDPbHfUWhHq3vSZ-26" target="wc-kAtDPbHfUWhHq3vSZ-28" edge="1">
          <mxGeometry width="50" height="50" relative="1" as="geometry">
            <mxPoint x="235" y="272" as="sourcePoint" />
            <mxPoint x="191" y="239" as="targetPoint" />
          </mxGeometry>
        </mxCell>
        <mxCell id="wc-kAtDPbHfUWhHq3vSZ-47" value="" style="endArrow=none;html=1;rounded=0;exitX=0.638;exitY=0;exitDx=0;exitDy=0;entryX=0;entryY=1;entryDx=0;entryDy=0;exitPerimeter=0;endFill=0;startArrow=oval;startFill=1;" parent="1" source="wc-kAtDPbHfUWhHq3vSZ-26" target="wc-kAtDPbHfUWhHq3vSZ-29" edge="1">
          <mxGeometry width="50" height="50" relative="1" as="geometry">
            <mxPoint x="267" y="269" as="sourcePoint" />
            <mxPoint x="270" y="212" as="targetPoint" />
          </mxGeometry>
        </mxCell>
        <mxCell id="wc-kAtDPbHfUWhHq3vSZ-51" value="" style="endArrow=classic;html=1;rounded=0;exitX=1;exitY=0.5;exitDx=0;exitDy=0;entryX=0.5;entryY=1;entryDx=0;entryDy=0;endFill=1;edgeStyle=orthogonalEdgeStyle;curved=1;" parent="1" source="wc-kAtDPbHfUWhHq3vSZ-41" target="wc-kAtDPbHfUWhHq3vSZ-42" edge="1">
          <mxGeometry width="50" height="50" relative="1" as="geometry">
            <mxPoint x="315" y="312" as="sourcePoint" />
            <mxPoint x="465" y="312" as="targetPoint" />
          </mxGeometry>
        </mxCell>
        <mxCell id="wc-kAtDPbHfUWhHq3vSZ-57" value="&lt;font style=&quot;font-size: 16px;&quot;&gt;Diagrama E/R&lt;/font&gt;" style="text;strokeColor=none;align=center;fillColor=none;html=1;verticalAlign=middle;whiteSpace=wrap;rounded=0;" parent="1" vertex="1">
          <mxGeometry x="440" y="33" width="90" height="57" as="geometry" />
        </mxCell>
        <mxCell id="wc-kAtDPbHfUWhHq3vSZ-58" value="código" style="ellipse;whiteSpace=wrap;html=1;fontStyle=1" parent="1" vertex="1">
          <mxGeometry x="310" y="272" width="70" height="40" as="geometry" />
        </mxCell>
        <mxCell id="wc-kAtDPbHfUWhHq3vSZ-59" value="" style="endArrow=none;html=1;rounded=0;endFill=0;startArrow=oval;startFill=1;exitX=0.75;exitY=0;exitDx=0;exitDy=0;" parent="1" source="wc-kAtDPbHfUWhHq3vSZ-26" edge="1">
          <mxGeometry width="50" height="50" relative="1" as="geometry">
            <mxPoint x="303" y="273" as="sourcePoint" />
            <mxPoint x="340" y="312" as="targetPoint" />
          </mxGeometry>
        </mxCell>
        <mxCell id="_f6-mfZsfHNNYEqXoSw5-8" style="edgeStyle=elbowEdgeStyle;rounded=0;orthogonalLoop=1;jettySize=auto;html=1;entryX=0.975;entryY=0.35;entryDx=0;entryDy=0;fontSize=12;startSize=8;endSize=8;endArrow=ERmany;endFill=0;startArrow=none;startFill=0;entryPerimeter=0;" parent="1" source="RARzLuFDLYq2KIcgCE57-1" target="wc-kAtDPbHfUWhHq3vSZ-26" edge="1">
          <mxGeometry relative="1" as="geometry" />
        </mxCell>
        <mxCell id="2PRYQohI_MPaXm1EaPx3-20" style="edgeStyle=elbowEdgeStyle;rounded=0;orthogonalLoop=1;jettySize=auto;html=1;entryX=0;entryY=0.5;entryDx=0;entryDy=0;exitX=1;exitY=0.5;exitDx=0;exitDy=0;" parent="1" source="RARzLuFDLYq2KIcgCE57-1" target="RARzLuFDLYq2KIcgCE57-3" edge="1">
          <mxGeometry relative="1" as="geometry">
            <Array as="points">
              <mxPoint x="615" y="502" />
            </Array>
          </mxGeometry>
        </mxCell>
        <mxCell id="RARzLuFDLYq2KIcgCE57-1" value="&lt;div&gt;es&amp;nbsp;&lt;/div&gt;&lt;div&gt;responsabilidad&lt;/div&gt;&lt;div&gt;tecnológica&lt;/div&gt;&lt;div&gt;de&lt;/div&gt;" style="rhombus;whiteSpace=wrap;html=1;" parent="1" vertex="1">
          <mxGeometry x="450" y="430" width="110" height="100" as="geometry" />
        </mxCell>
        <mxCell id="RARzLuFDLYq2KIcgCE57-3" value="EMPLEADO" style="whiteSpace=wrap;html=1;aspect=fixed;strokeWidth=2;" parent="1" vertex="1">
          <mxGeometry x="670" y="462" width="80" height="80" as="geometry" />
        </mxCell>
        <mxCell id="_f6-mfZsfHNNYEqXoSw5-2" style="edgeStyle=orthogonalEdgeStyle;rounded=0;orthogonalLoop=1;jettySize=auto;html=1;entryX=0.25;entryY=0;entryDx=0;entryDy=0;fontSize=12;startSize=8;endSize=8;endArrow=oval;endFill=1;" parent="1" source="igyQZ0JJpqwrwuxizYwg-4" target="wc-kAtDPbHfUWhHq3vSZ-30" edge="1">
          <mxGeometry relative="1" as="geometry" />
        </mxCell>
        <mxCell id="igyQZ0JJpqwrwuxizYwg-4" value="DIR3" style="ellipse;whiteSpace=wrap;html=1;fontStyle=1" parent="1" vertex="1">
          <mxGeometry x="244" y="90" width="116" height="40" as="geometry" />
        </mxCell>
        <mxCell id="igyQZ0JJpqwrwuxizYwg-7" style="edgeStyle=orthogonalEdgeStyle;rounded=0;orthogonalLoop=1;jettySize=auto;html=1;entryX=0.5;entryY=0;entryDx=0;entryDy=0;endArrow=oval;startFill=0;endFill=1;" parent="1" source="igyQZ0JJpqwrwuxizYwg-6" target="RARzLuFDLYq2KIcgCE57-3" edge="1">
          <mxGeometry relative="1" as="geometry" />
        </mxCell>
        <mxCell id="igyQZ0JJpqwrwuxizYwg-6" value="&lt;div&gt;nombre empleado&lt;/div&gt;" style="ellipse;whiteSpace=wrap;html=1;" parent="1" vertex="1">
          <mxGeometry x="660" y="382" width="116" height="40" as="geometry" />
        </mxCell>
        <mxCell id="igyQZ0JJpqwrwuxizYwg-9" style="edgeStyle=orthogonalEdgeStyle;rounded=0;orthogonalLoop=1;jettySize=auto;html=1;entryX=0.5;entryY=1;entryDx=0;entryDy=0;endArrow=oval;startFill=0;endFill=1;" parent="1" source="igyQZ0JJpqwrwuxizYwg-8" target="RARzLuFDLYq2KIcgCE57-3" edge="1">
          <mxGeometry relative="1" as="geometry" />
        </mxCell>
        <mxCell id="igyQZ0JJpqwrwuxizYwg-8" value="&lt;div&gt;email&lt;/div&gt;" style="ellipse;whiteSpace=wrap;html=1;" parent="1" vertex="1">
          <mxGeometry x="652" y="584.5" width="116" height="40" as="geometry" />
        </mxCell>
        <mxCell id="igyQZ0JJpqwrwuxizYwg-10" value="&lt;div&gt;Activo&lt;/div&gt;&lt;div&gt;Datos&lt;/div&gt;" style="whiteSpace=wrap;html=1;aspect=fixed;strokeWidth=2;" parent="1" vertex="1">
          <mxGeometry x="500" y="740" width="80" height="80" as="geometry" />
        </mxCell>
        <mxCell id="igyQZ0JJpqwrwuxizYwg-12" style="edgeStyle=orthogonalEdgeStyle;rounded=0;orthogonalLoop=1;jettySize=auto;html=1;entryX=1;entryY=0.75;entryDx=0;entryDy=0;curved=1;" parent="1" source="igyQZ0JJpqwrwuxizYwg-11" target="wc-kAtDPbHfUWhHq3vSZ-26" edge="1">
          <mxGeometry relative="1" as="geometry" />
        </mxCell>
        <mxCell id="igyQZ0JJpqwrwuxizYwg-13" style="edgeStyle=orthogonalEdgeStyle;rounded=0;orthogonalLoop=1;jettySize=auto;html=1;entryX=0.5;entryY=0;entryDx=0;entryDy=0;endArrow=ERmany;startFill=0;curved=1;startArrow=none;endFill=0;" parent="1" source="igyQZ0JJpqwrwuxizYwg-11" target="igyQZ0JJpqwrwuxizYwg-10" edge="1">
          <mxGeometry relative="1" as="geometry" />
        </mxCell>
        <mxCell id="igyQZ0JJpqwrwuxizYwg-11" value="contiene" style="rhombus;whiteSpace=wrap;html=1;" parent="1" vertex="1">
          <mxGeometry x="374" y="585" width="80" height="80" as="geometry" />
        </mxCell>
        <mxCell id="2PRYQohI_MPaXm1EaPx3-5" style="edgeStyle=entityRelationEdgeStyle;rounded=0;orthogonalLoop=1;jettySize=auto;html=1;endArrow=oval;endFill=1;" parent="1" source="igyQZ0JJpqwrwuxizYwg-14" edge="1">
          <mxGeometry relative="1" as="geometry">
            <mxPoint x="500" y="750" as="targetPoint" />
          </mxGeometry>
        </mxCell>
        <mxCell id="igyQZ0JJpqwrwuxizYwg-14" value="&lt;div&gt;Nombre activo&lt;/div&gt;" style="ellipse;whiteSpace=wrap;html=1;" parent="1" vertex="1">
          <mxGeometry x="203" y="700" width="116" height="30" as="geometry" />
        </mxCell>
        <mxCell id="2PRYQohI_MPaXm1EaPx3-6" style="edgeStyle=entityRelationEdgeStyle;rounded=0;orthogonalLoop=1;jettySize=auto;html=1;entryX=0;entryY=0.25;entryDx=0;entryDy=0;endArrow=oval;endFill=1;" parent="1" source="_f6-mfZsfHNNYEqXoSw5-4" target="igyQZ0JJpqwrwuxizYwg-10" edge="1">
          <mxGeometry relative="1" as="geometry" />
        </mxCell>
        <mxCell id="_f6-mfZsfHNNYEqXoSw5-4" value="&lt;div&gt;Nivel Confidencialidad&lt;/div&gt;" style="ellipse;whiteSpace=wrap;html=1;" parent="1" vertex="1">
          <mxGeometry x="60" y="730" width="140" height="30" as="geometry" />
        </mxCell>
        <mxCell id="_f6-mfZsfHNNYEqXoSw5-6" value="" style="endArrow=none;html=1;rounded=0;endFill=0;startArrow=oval;startFill=1;" parent="1" source="wc-kAtDPbHfUWhHq3vSZ-26" target="wc-kAtDPbHfUWhHq3vSZ-27" edge="1">
          <mxGeometry width="50" height="50" relative="1" as="geometry">
            <mxPoint x="294" y="440" as="sourcePoint" />
            <mxPoint x="340" y="312" as="targetPoint" />
          </mxGeometry>
        </mxCell>
        <mxCell id="wc-kAtDPbHfUWhHq3vSZ-27" value="nombre sistema" style="ellipse;whiteSpace=wrap;html=1;" parent="1" vertex="1">
          <mxGeometry x="169" y="330" width="70" height="40" as="geometry" />
        </mxCell>
        <mxCell id="2PRYQohI_MPaXm1EaPx3-10" style="edgeStyle=orthogonalEdgeStyle;rounded=0;orthogonalLoop=1;jettySize=auto;html=1;entryX=0.5;entryY=1;entryDx=0;entryDy=0;endArrow=oval;endFill=1;" parent="1" source="xfVUtsEpTC5mZNuQtvDd-1" target="igyQZ0JJpqwrwuxizYwg-10" edge="1">
          <mxGeometry relative="1" as="geometry" />
        </mxCell>
        <mxCell id="xfVUtsEpTC5mZNuQtvDd-1" value="contiene datos personales&amp;nbsp;&lt;span style=&quot;background-color: transparent; color: light-dark(rgb(0, 0, 0), rgb(255, 255, 255));&quot;&gt;ⓑ&lt;/span&gt;" style="ellipse;whiteSpace=wrap;html=1;" parent="1" vertex="1">
          <mxGeometry x="470" y="860" width="128" height="60" as="geometry" />
        </mxCell>
        <mxCell id="2PRYQohI_MPaXm1EaPx3-1" value="&lt;div&gt;Nivel Integridad&lt;/div&gt;" style="ellipse;whiteSpace=wrap;html=1;" parent="1" vertex="1">
          <mxGeometry x="60" y="770" width="140" height="30" as="geometry" />
        </mxCell>
        <mxCell id="2PRYQohI_MPaXm1EaPx3-2" style="edgeStyle=entityRelationEdgeStyle;rounded=0;orthogonalLoop=1;jettySize=auto;html=1;entryX=-0.012;entryY=0.363;entryDx=0;entryDy=0;entryPerimeter=0;endArrow=oval;endFill=1;" parent="1" source="2PRYQohI_MPaXm1EaPx3-1" target="igyQZ0JJpqwrwuxizYwg-10" edge="1">
          <mxGeometry relative="1" as="geometry">
            <mxPoint x="450" y="794" as="targetPoint" />
          </mxGeometry>
        </mxCell>
        <mxCell id="2PRYQohI_MPaXm1EaPx3-9" style="edgeStyle=entityRelationEdgeStyle;rounded=0;orthogonalLoop=1;jettySize=auto;html=1;entryX=0;entryY=0.5;entryDx=0;entryDy=0;endArrow=oval;endFill=1;" parent="1" source="2PRYQohI_MPaXm1EaPx3-7" target="igyQZ0JJpqwrwuxizYwg-10" edge="1">
          <mxGeometry relative="1" as="geometry" />
        </mxCell>
        <mxCell id="2PRYQohI_MPaXm1EaPx3-7" value="&lt;div&gt;Nivel Trazabilidad&lt;/div&gt;" style="ellipse;whiteSpace=wrap;html=1;" parent="1" vertex="1">
          <mxGeometry x="60" y="810" width="140" height="30" as="geometry" />
        </mxCell>
        <mxCell id="2PRYQohI_MPaXm1EaPx3-8" value="&lt;div&gt;Nivel Autenticidad&lt;/div&gt;" style="ellipse;whiteSpace=wrap;html=1;" parent="1" vertex="1">
          <mxGeometry x="60" y="850" width="140" height="30" as="geometry" />
        </mxCell>
        <mxCell id="2PRYQohI_MPaXm1EaPx3-11" style="edgeStyle=entityRelationEdgeStyle;rounded=0;orthogonalLoop=1;jettySize=auto;html=1;endArrow=oval;endFill=1;elbow=vertical;" parent="1" source="2PRYQohI_MPaXm1EaPx3-8" edge="1">
          <mxGeometry relative="1" as="geometry">
            <mxPoint x="500" y="789" as="targetPoint" />
          </mxGeometry>
        </mxCell>
        <mxCell id="2PRYQohI_MPaXm1EaPx3-15" style="edgeStyle=entityRelationEdgeStyle;rounded=0;orthogonalLoop=1;jettySize=auto;html=1;entryX=0;entryY=0.75;entryDx=0;entryDy=0;endArrow=oval;endFill=1;exitX=1;exitY=0.5;exitDx=0;exitDy=0;" parent="1" source="2PRYQohI_MPaXm1EaPx3-12" target="igyQZ0JJpqwrwuxizYwg-10" edge="1">
          <mxGeometry relative="1" as="geometry" />
        </mxCell>
        <mxCell id="2PRYQohI_MPaXm1EaPx3-12" value="&lt;div&gt;Nivel Disponibilidad&lt;/div&gt;" style="ellipse;whiteSpace=wrap;html=1;" parent="1" vertex="1">
          <mxGeometry x="60" y="890" width="140" height="30" as="geometry" />
        </mxCell>
        <mxCell id="2PRYQohI_MPaXm1EaPx3-17" value="" style="shape=curlyBracket;whiteSpace=wrap;html=1;rounded=1;labelPosition=left;verticalLabelPosition=middle;align=right;verticalAlign=middle;rotation=-90;" parent="1" vertex="1">
          <mxGeometry x="120" y="885" width="20" height="150" as="geometry" />
        </mxCell>
        <mxCell id="2PRYQohI_MPaXm1EaPx3-18" value="ENS" style="text;html=1;align=center;verticalAlign=middle;whiteSpace=wrap;rounded=0;" parent="1" vertex="1">
          <mxGeometry x="95" y="970" width="60" height="30" as="geometry" />
        </mxCell>
        <mxCell id="qT5xHGzxczS3_Qcb7Wt9-5" style="edgeStyle=orthogonalEdgeStyle;rounded=0;orthogonalLoop=1;jettySize=auto;html=1;entryX=0;entryY=0.25;entryDx=0;entryDy=0;" parent="1" source="qT5xHGzxczS3_Qcb7Wt9-3" target="RARzLuFDLYq2KIcgCE57-3" edge="1">
          <mxGeometry relative="1" as="geometry" />
        </mxCell>
        <mxCell id="qT5xHGzxczS3_Qcb7Wt9-3" value="&lt;div&gt;Responsable&lt;/div&gt;&lt;div&gt;funcional&lt;/div&gt;" style="rhombus;whiteSpace=wrap;html=1;" parent="1" vertex="1">
          <mxGeometry x="488" y="350" width="110" height="100" as="geometry" />
        </mxCell>
        <mxCell id="qT5xHGzxczS3_Qcb7Wt9-4" style="edgeStyle=orthogonalEdgeStyle;rounded=0;orthogonalLoop=1;jettySize=auto;html=1;entryX=0.988;entryY=0.163;entryDx=0;entryDy=0;entryPerimeter=0;startArrow=none;startFill=0;endArrow=ERmany;endFill=0;" parent="1" source="qT5xHGzxczS3_Qcb7Wt9-3" target="wc-kAtDPbHfUWhHq3vSZ-26" edge="1">
          <mxGeometry relative="1" as="geometry" />
        </mxCell>
        <mxCell id="qT5xHGzxczS3_Qcb7Wt9-8" style="edgeStyle=orthogonalEdgeStyle;rounded=0;orthogonalLoop=1;jettySize=auto;html=1;entryX=0;entryY=0.5;entryDx=0;entryDy=0;startArrow=ERmany;startFill=0;endArrow=none;endFill=0;" parent="1" source="qT5xHGzxczS3_Qcb7Wt9-6" target="qT5xHGzxczS3_Qcb7Wt9-7" edge="1">
          <mxGeometry relative="1" as="geometry" />
        </mxCell>
        <mxCell id="qT5xHGzxczS3_Qcb7Wt9-6" value="Normativa" style="whiteSpace=wrap;html=1;aspect=fixed;strokeWidth=2;" parent="1" vertex="1">
          <mxGeometry x="55" y="620" width="80" height="80" as="geometry" />
        </mxCell>
        <mxCell id="qT5xHGzxczS3_Qcb7Wt9-9" style="edgeStyle=orthogonalEdgeStyle;rounded=0;orthogonalLoop=1;jettySize=auto;html=1;entryX=0.5;entryY=1;entryDx=0;entryDy=0;exitX=1;exitY=0.5;exitDx=0;exitDy=0;startArrow=none;startFill=0;endArrow=ERmany;endFill=0;" parent="1" source="qT5xHGzxczS3_Qcb7Wt9-7" target="wc-kAtDPbHfUWhHq3vSZ-26" edge="1">
          <mxGeometry relative="1" as="geometry" />
        </mxCell>
        <mxCell id="qT5xHGzxczS3_Qcb7Wt9-7" value="&lt;div&gt;regula&lt;/div&gt;" style="rhombus;whiteSpace=wrap;html=1;" parent="1" vertex="1">
          <mxGeometry x="169" y="564.5" width="80" height="80" as="geometry" />
        </mxCell>
        <mxCell id="qT5xHGzxczS3_Qcb7Wt9-15" style="edgeStyle=orthogonalEdgeStyle;rounded=0;orthogonalLoop=1;jettySize=auto;html=1;entryX=1;entryY=0.25;entryDx=0;entryDy=0;endArrow=oval;endFill=1;" parent="1" source="qT5xHGzxczS3_Qcb7Wt9-14" target="igyQZ0JJpqwrwuxizYwg-10" edge="1">
          <mxGeometry relative="1" as="geometry" />
        </mxCell>
        <mxCell id="qT5xHGzxczS3_Qcb7Wt9-14" value="&lt;div&gt;Es prioritario&amp;nbsp;&lt;span style=&quot;background-color: transparent; color: light-dark(rgb(0, 0, 0), rgb(255, 255, 255));&quot;&gt;ⓑ&lt;/span&gt;&lt;/div&gt;" style="ellipse;whiteSpace=wrap;html=1;" parent="1" vertex="1">
          <mxGeometry x="620" y="820" width="116" height="40" as="geometry" />
        </mxCell>
        <mxCell id="LdBtdAH4lR4CZ0O_dCEN-3" value="&lt;div&gt;Está georeferenciado&amp;nbsp;&lt;span style=&quot;background-color: transparent; color: light-dark(rgb(0, 0, 0), rgb(255, 255, 255));&quot;&gt;ⓑ&lt;/span&gt;&lt;/div&gt;" style="ellipse;whiteSpace=wrap;html=1;" parent="1" vertex="1">
          <mxGeometry x="634" y="765" width="146" height="40" as="geometry" />
        </mxCell>
        <mxCell id="LdBtdAH4lR4CZ0O_dCEN-4" style="edgeStyle=orthogonalEdgeStyle;rounded=0;orthogonalLoop=1;jettySize=auto;html=1;entryX=0.989;entryY=0.084;entryDx=0;entryDy=0;entryPerimeter=0;endArrow=oval;endFill=1;" parent="1" source="LdBtdAH4lR4CZ0O_dCEN-3" target="igyQZ0JJpqwrwuxizYwg-10" edge="1">
          <mxGeometry relative="1" as="geometry" />
        </mxCell>
        <mxCell id="x34gU0CX-Yp1LqO4jcWF-4" style="edgeStyle=orthogonalEdgeStyle;rounded=0;orthogonalLoop=1;jettySize=auto;html=1;exitX=0.5;exitY=1;exitDx=0;exitDy=0;entryX=-0.001;entryY=0.897;entryDx=0;entryDy=0;entryPerimeter=0;" edge="1" parent="1" source="x34gU0CX-Yp1LqO4jcWF-2" target="wc-kAtDPbHfUWhHq3vSZ-26">
          <mxGeometry relative="1" as="geometry">
            <mxPoint x="130" y="580" as="targetPoint" />
            <Array as="points">
              <mxPoint x="70" y="570" />
              <mxPoint x="160" y="570" />
              <mxPoint x="160" y="511" />
              <mxPoint x="200" y="511" />
            </Array>
          </mxGeometry>
        </mxCell>
        <mxCell id="x34gU0CX-Yp1LqO4jcWF-2" value="es &lt;br&gt;subsistema&lt;br&gt;&amp;nbsp;de" style="rhombus;whiteSpace=wrap;html=1;" vertex="1" parent="1">
          <mxGeometry x="30" y="470" width="80" height="80" as="geometry" />
        </mxCell>
        <mxCell id="x34gU0CX-Yp1LqO4jcWF-3" style="edgeStyle=orthogonalEdgeStyle;rounded=0;orthogonalLoop=1;jettySize=auto;html=1;exitX=0.5;exitY=0;exitDx=0;exitDy=0;entryX=0;entryY=0.75;entryDx=0;entryDy=0;" edge="1" parent="1" source="x34gU0CX-Yp1LqO4jcWF-2" target="wc-kAtDPbHfUWhHq3vSZ-26">
          <mxGeometry relative="1" as="geometry">
            <mxPoint x="238" y="500" as="targetPoint" />
            <Array as="points">
              <mxPoint x="70" y="450" />
              <mxPoint x="160" y="450" />
              <mxPoint x="160" y="499" />
            </Array>
          </mxGeometry>
        </mxCell>
      </root>
    </mxGraphModel>
  </diagram>
</mxfile>
